<svg xmlns="http://www.w3.org/2000/svg">
    <!-- MENU -->
    <svg xmlns="http://www.w3.org/2000/svg" width="36" height="36" color="#E9E6F7" viewBox="0 0 24 24">
        <g id="ic:baseline-menu-open">
            <path fill="currentColor" d="M3 18h13v-2H3v2zm0-5h10v-2H3v2zm0-7v2h13V6H3zm18 9.59L17.42 12L21 8.41L19.59 7l-5 5l5 5L21 15.59z"/>
        </g>
    </svg>

    <!-- AVATAR -->
    <svg width="24" height="24" viewBox="0 0 24 24" fill="none">
        <g id="radix-icons:avatar">
        <path id="Vector" fill-rule="evenodd" clip-rule="evenodd" d="M1.4032 12C1.4032 9.18955 2.51964 6.49421 4.50693 4.50693C6.49421 2.51964 9.18955 1.4032 12 1.4032C14.8104 1.4032 17.5058 2.51964 19.4931 4.50693C21.4804 6.49421 22.5968 9.18955 22.5968 12C22.5968 14.8104 21.4804 17.5058 19.4931 19.4931C17.5058 21.4804 14.8104 22.5968 12 22.5968C9.18955 22.5968 6.49421 21.4804 4.50693 19.4931C2.51964 17.5058 1.4032 14.8104 1.4032 12ZM12 2.9232C10.2407 2.92326 8.51926 3.43461 7.04521 4.39504C5.57116 5.35548 4.408 6.7236 3.69723 8.33296C2.98646 9.94233 2.75871 11.7236 3.0417 13.46C3.32469 15.1964 4.10621 16.8132 5.2912 18.1136C6.0106 16.9868 7.00242 16.0595 8.17501 15.4174C9.3476 14.7753 10.6631 14.4392 12 14.44C13.3369 14.439 14.6525 14.7751 15.8251 15.4172C16.9977 16.0593 17.9895 16.9867 18.7088 18.1136C19.8938 16.8132 20.6753 15.1964 20.9583 13.46C21.2413 11.7236 21.0135 9.94233 20.3028 8.33296C19.592 6.7236 18.4288 5.35548 16.9548 4.39504C15.4807 3.43461 13.7593 2.92326 12 2.9232ZM17.5712 19.1664C17.005 18.1906 16.1923 17.3807 15.2145 16.818C14.2367 16.2552 13.1282 15.9593 12 15.96C10.8718 15.9593 9.7633 16.2552 8.7855 16.818C7.8077 17.3807 6.99499 18.1906 6.4288 19.1664C8.02042 20.4075 9.9817 21.08 12 21.0768C14.0992 21.0768 16.032 20.3632 17.5712 19.1664ZM8.24 10.408C8.24 9.41078 8.63614 8.45441 9.34128 7.74928C10.0464 7.04414 11.0028 6.648 12 6.648C12.9972 6.648 13.9536 7.04414 14.6587 7.74928C15.3639 8.45441 15.76 9.41078 15.76 10.408C15.76 11.4052 15.3639 12.3616 14.6587 13.0667C13.9536 13.7719 12.9972 14.168 12 14.168C11.0028 14.168 10.0464 13.7719 9.34128 13.0667C8.63614 12.3616 8.24 11.4052 8.24 10.408ZM12 8.168C11.7058 8.168 11.4146 8.22594 11.1428 8.33851C10.871 8.45108 10.6241 8.61608 10.4161 8.82408C10.2081 9.03208 10.0431 9.27902 9.93051 9.55079C9.81794 9.82256 9.76 10.1138 9.76 10.408C9.76 10.7022 9.81794 10.9934 9.93051 11.2652C10.0431 11.537 10.2081 11.7839 10.4161 11.9919C10.6241 12.1999 10.871 12.3649 11.1428 12.4775C11.4146 12.5901 11.7058 12.648 12 12.648C12.5941 12.648 13.1638 12.412 13.5839 11.9919C14.004 11.5718 14.24 11.0021 14.24 10.408C14.24 9.81391 14.004 9.24416 13.5839 8.82408C13.1638 8.404 12.5941 8.168 12 8.168Z" fill="#E9E6F7"/>
        </g>
    </svg>

    <!-- LOGOUT -->
    <svg width="18" height="16" viewBox="0 0 18 16" fill="none">
        <g id="heroicons-outline:logout">
        <path id="Vector" d="M13.2371 11.4166L16.5704 8.0833M16.5704 8.0833L13.2371 4.74996M16.5704 8.0833H4.90376M9.90374 11.4166V12.25C9.90374 12.913 9.64035 13.5489 9.17151 14.0177C8.70267 14.4866 8.06679 14.75 7.40375 14.75H4.07043C3.40739 14.75 2.7715 14.4866 2.30267 14.0177C1.83383 13.5489 1.57043 12.913 1.57043 12.25V3.91663C1.57043 3.25359 1.83383 2.6177 2.30267 2.14886C2.7715 1.68002 3.40739 1.41663 4.07043 1.41663H7.40375C8.06679 1.41663 8.70267 1.68002 9.17151 2.14886C9.64035 2.6177 9.90374 3.25359 9.90374 3.91663V4.74996" stroke="#E9E6F7" stroke-linecap="round" stroke-linejoin="round"/>
        </g>
    </svg>

    <!-- CART -->
    <svg width="36" height="38" viewBox="0 0 36 38" fill="none">
        <g id="cart">
        <path d="M10.81 37.0167C9.81907 37.0167 8.97049 36.6636 8.26424 35.9573C7.55798 35.2511 7.20546 34.4031 7.20666 33.4134C7.20666 32.4224 7.55978 31.5739 8.26604 30.8676C8.97229 30.1614 9.82027 29.8088 10.81 29.81C11.8009 29.81 12.6495 30.1632 13.3557 30.8694C14.062 31.5757 14.4145 32.4236 14.4133 33.4134C14.4133 34.4043 14.0602 35.2529 13.3539 35.9591C12.6477 36.6654 11.7997 37.0179 10.81 37.0167ZM28.8266 37.0167C27.8357 37.0167 26.9871 36.6636 26.2809 35.9573C25.5746 35.2511 25.2221 34.4031 25.2233 33.4134C25.2233 32.4224 25.5764 31.5739 26.2827 30.8676C26.9889 30.1614 27.8369 29.8088 28.8266 29.81C29.8175 29.81 30.6661 30.1632 31.3724 30.8694C32.0786 31.5757 32.4312 32.4236 32.43 33.4134C32.43 34.4043 32.0768 35.2529 31.3706 35.9591C30.6643 36.6654 29.8163 37.0179 28.8266 37.0167ZM9.27857 8.19006L13.6026 17.1984H26.2142L31.1688 8.19006H9.27857ZM7.56699 4.58673H34.1415C34.8322 4.58673 35.3577 4.89481 35.718 5.51098C36.0783 6.12715 36.0933 6.74993 35.763 7.37931L29.3671 18.91C29.0368 19.5105 28.5936 19.9759 28.0375 20.3063C27.4814 20.6366 26.8736 20.8017 26.2142 20.8017H12.7918L10.81 24.405H32.43V28.0084H10.81C9.45874 28.0084 8.4378 27.415 7.74716 26.2283C7.05652 25.0416 7.02649 23.8633 7.65707 22.6935L10.0893 18.2794L3.60333 4.58673H0V0.983398H5.85541L7.56699 4.58673Z" fill="#E9E6F7"/>
        </g>
    </svg>

    <!-- CART ADDED -->
    <svg width="25" height="25" viewBox="0 0 25 25">
        <g id="mdi:cart-check">
        <path id="Vector" d="M9.42004 20.5C9.42004 21.6 8.52004 22.5 7.42004 22.5C6.32004 22.5 5.42004 21.6 5.42004 20.5C5.42004 19.4 6.32004 18.5 7.42004 18.5C8.52004 18.5 9.42004 19.4 9.42004 20.5ZM17.42 18.5C16.32 18.5 15.42 19.4 15.42 20.5C15.42 21.6 16.32 22.5 17.42 22.5C18.52 22.5 19.42 21.6 19.42 20.5C19.42 19.4 18.52 18.5 17.42 18.5ZM7.62004 15.3V15.2L8.52004 13.5H15.92C16.62 13.5 17.32 13.1 17.62 12.5L21.52 5.5L19.82 4.5L15.92 11.5H8.92004L4.72004 2.5H1.42004V4.5H3.42004L7.02004 12.1L5.62004 14.5C5.52004 14.8 5.42004 15.1 5.42004 15.5C5.42004 16.6 6.32004 17.5 7.42004 17.5H19.42V15.5H7.82004C7.72004 15.5 7.62004 15.4 7.62004 15.3ZM18.42 3.3L17.02 1.9L12.22 6.7L9.62004 4.1L8.22004 5.5L12.22 9.5L18.42 3.3Z" />
        </g>
    </svg>

    <!-- SETTINGS -->
    <svg width="20" height="21" viewBox="0 0 20 21" fill="none">
        <g id="carbon:settings">
        <path id="Vector" d="M16.875 10.975V10.0188L18.075 8.96877C18.2962 8.7738 18.4413 8.50691 18.4848 8.21527C18.5283 7.92363 18.4672 7.62601 18.3125 7.37502L16.8375 4.87502C16.7279 4.68518 16.5703 4.5275 16.3805 4.4178C16.1907 4.3081 15.9754 4.25024 15.7562 4.25001C15.6204 4.24897 15.4853 4.27008 15.3562 4.31251L13.8375 4.82502C13.5753 4.65077 13.3018 4.49417 13.0187 4.35626L12.7 2.78126C12.6428 2.49351 12.4863 2.23504 12.2578 2.05107C12.0293 1.86711 11.7433 1.76939 11.45 1.77501H8.52501C8.2317 1.76939 7.94575 1.86711 7.71723 2.05107C7.48871 2.23504 7.33217 2.49351 7.27502 2.78126L6.95627 4.35626C6.67123 4.49414 6.39562 4.65073 6.13127 4.82502L4.64377 4.28751C4.51334 4.25353 4.37826 4.24087 4.24378 4.25001C4.02457 4.25024 3.80928 4.3081 3.61951 4.4178C3.42973 4.5275 3.27213 4.68518 3.16253 4.87502L1.68754 7.37502C1.54165 7.62564 1.48744 7.91918 1.53419 8.20537C1.58094 8.49156 1.72574 8.7526 1.94378 8.94377L3.12503 10.025V10.9813L1.94378 12.0313C1.71958 12.2238 1.57082 12.4895 1.52391 12.7812C1.477 13.073 1.53497 13.372 1.68754 13.625L3.16253 16.125C3.27213 16.3149 3.42973 16.4725 3.61951 16.5822C3.80928 16.6919 4.02457 16.7498 4.24378 16.75C4.37962 16.7511 4.51472 16.73 4.64377 16.6875L6.16252 16.175C6.42473 16.3493 6.69825 16.5059 6.98127 16.6438L7.30002 18.2188C7.35717 18.5065 7.51371 18.765 7.74223 18.949C7.97075 19.1329 8.2567 19.2307 8.55001 19.225H11.5C11.7933 19.2307 12.0793 19.1329 12.3078 18.949C12.5363 18.765 12.6928 18.5065 12.75 18.2188L13.0687 16.6438C13.3538 16.5059 13.6294 16.3493 13.8937 16.175L15.4062 16.6875C15.5353 16.73 15.6704 16.7511 15.8062 16.75C16.0254 16.7498 16.2407 16.6919 16.4305 16.5822C16.6203 16.4725 16.7779 16.3149 16.8875 16.125L18.3125 13.625C18.4584 13.3744 18.5126 13.0809 18.4658 12.7947C18.4191 12.5085 18.2743 12.2474 18.0562 12.0563L16.875 10.975ZM15.7562 15.5L13.6125 14.775C13.1107 15.2001 12.5371 15.5324 11.9187 15.7563L11.475 18H8.52501L8.08126 15.7813C7.46778 15.551 6.89734 15.2193 6.39377 14.8L4.24378 15.5L2.76878 13L4.46878 11.5C4.35321 10.8531 4.35321 10.1907 4.46878 9.54377L2.76878 8.00002L4.24378 5.50002L6.38752 6.22502C6.88935 5.79995 7.46289 5.46767 8.08126 5.24377L8.52501 3.00001H11.475L11.9187 5.21877C12.5322 5.44903 13.1027 5.78073 13.6062 6.20002L15.7562 5.50002L17.2312 8.00002L15.5312 9.50002C15.6468 10.147 15.6468 10.8093 15.5312 11.4563L17.2312 13L15.7562 15.5Z" fill="#E9E6F7"/>
        <path id="Vector_2" d="M9.99999 14.25C9.25831 14.25 8.53329 14.0301 7.91661 13.618C7.29992 13.206 6.81928 12.6203 6.53545 11.9351C6.25162 11.2498 6.17736 10.4958 6.32206 9.76842C6.46675 9.04099 6.8239 8.3728 7.34835 7.84835C7.87279 7.32391 8.54098 6.96675 9.2684 6.82206C9.99583 6.67736 10.7498 6.75162 11.435 7.03545C12.1203 7.31928 12.7059 7.79993 13.118 8.41662C13.53 9.0333 13.75 9.75833 13.75 10.5C13.755 10.9939 13.6614 11.4837 13.4747 11.941C13.2881 12.3982 13.012 12.8136 12.6628 13.1628C12.3136 13.5121 11.8982 13.7881 11.441 13.9748C10.9837 14.1615 10.4938 14.255 9.99999 14.25ZM9.99999 8C9.66958 7.99231 9.34104 8.05171 9.03425 8.17462C8.72746 8.29754 8.44879 8.4814 8.21509 8.7151C7.98139 8.9488 7.79753 9.22747 7.67462 9.53427C7.5517 9.84106 7.4923 10.1696 7.5 10.5C7.4923 10.8304 7.5517 11.159 7.67462 11.4657C7.79753 11.7725 7.98139 12.0512 8.21509 12.2849C8.44879 12.5186 8.72746 12.7025 9.03425 12.8254C9.34104 12.9483 9.66958 13.0077 9.99999 13C10.3304 13.0077 10.6589 12.9483 10.9657 12.8254C11.2725 12.7025 11.5512 12.5186 11.7849 12.2849C12.0186 12.0512 12.2024 11.7725 12.3254 11.4657C12.4483 11.159 12.5077 10.8304 12.5 10.5C12.5077 10.1696 12.4483 9.84106 12.3254 9.53427C12.2024 9.22747 12.0186 8.9488 11.7849 8.7151C11.5512 8.4814 11.2725 8.29754 10.9657 8.17462C10.6589 8.05171 10.3304 7.99231 9.99999 8Z" fill="#E9E6F7"/>
        </g>
    </svg>
</svg>