<svg width="25" height="25" viewBox="0 0 25 25" fill="none" xmlns="http://www.w3.org/2000/svg">
<g id="mdi:cart-check">
<path id="Vector" d="M9.42004 20.5C9.42004 21.6 8.52004 22.5 7.42004 22.5C6.32004 22.5 5.42004 21.6 5.42004 20.5C5.42004 19.4 6.32004 18.5 7.42004 18.5C8.52004 18.5 9.42004 19.4 9.42004 20.5ZM17.42 18.5C16.32 18.5 15.42 19.4 15.42 20.5C15.42 21.6 16.32 22.5 17.42 22.5C18.52 22.5 19.42 21.6 19.42 20.5C19.42 19.4 18.52 18.5 17.42 18.5ZM7.62004 15.3V15.2L8.52004 13.5H15.92C16.62 13.5 17.32 13.1 17.62 12.5L21.52 5.5L19.82 4.5L15.92 11.5H8.92004L4.72004 2.5H1.42004V4.5H3.42004L7.02004 12.1L5.62004 14.5C5.52004 14.8 5.42004 15.1 5.42004 15.5C5.42004 16.6 6.32004 17.5 7.42004 17.5H19.42V15.5H7.82004C7.72004 15.5 7.62004 15.4 7.62004 15.3ZM18.42 3.3L17.02 1.9L12.22 6.7L9.62004 4.1L8.22004 5.5L12.22 9.5L18.42 3.3Z" fill="#0B822A"/>
</g>
</svg>
