<svg width="36" height="38" viewBox="0 0 36 38" fill="none" xmlns="http://www.w3.org/2000/svg">
<path d="M10.81 37.0167C9.81907 37.0167 8.97049 36.6636 8.26424 35.9573C7.55798 35.2511 7.20546 34.4031 7.20666 33.4134C7.20666 32.4224 7.55978 31.5739 8.26604 30.8676C8.97229 30.1614 9.82027 29.8088 10.81 29.81C11.8009 29.81 12.6495 30.1632 13.3557 30.8694C14.062 31.5757 14.4145 32.4236 14.4133 33.4134C14.4133 34.4043 14.0602 35.2529 13.3539 35.9591C12.6477 36.6654 11.7997 37.0179 10.81 37.0167ZM28.8266 37.0167C27.8357 37.0167 26.9871 36.6636 26.2809 35.9573C25.5746 35.2511 25.2221 34.4031 25.2233 33.4134C25.2233 32.4224 25.5764 31.5739 26.2827 30.8676C26.9889 30.1614 27.8369 29.8088 28.8266 29.81C29.8175 29.81 30.6661 30.1632 31.3724 30.8694C32.0786 31.5757 32.4312 32.4236 32.43 33.4134C32.43 34.4043 32.0768 35.2529 31.3706 35.9591C30.6643 36.6654 29.8163 37.0179 28.8266 37.0167ZM9.27857 8.19006L13.6026 17.1984H26.2142L31.1688 8.19006H9.27857ZM7.56699 4.58673H34.1415C34.8322 4.58673 35.3577 4.89481 35.718 5.51098C36.0783 6.12715 36.0933 6.74993 35.763 7.37931L29.3671 18.91C29.0368 19.5105 28.5936 19.9759 28.0375 20.3063C27.4814 20.6366 26.8736 20.8017 26.2142 20.8017H12.7918L10.81 24.405H32.43V28.0084H10.81C9.45874 28.0084 8.4378 27.415 7.74716 26.2283C7.05652 25.0416 7.02649 23.8633 7.65707 22.6935L10.0893 18.2794L3.60333 4.58673H0V0.983398H5.85541L7.56699 4.58673Z" fill="#E9E6F7"/>
</svg>
