<svg width="18" height="16" viewBox="0 0 18 16" fill="none" xmlns="http://www.w3.org/2000/svg">
<g id="heroicons-outline:logout">
<path id="Vector" d="M13.2371 11.4166L16.5704 8.0833M16.5704 8.0833L13.2371 4.74996M16.5704 8.0833H4.90376M9.90374 11.4166V12.25C9.90374 12.913 9.64035 13.5489 9.17151 14.0177C8.70267 14.4866 8.06679 14.75 7.40375 14.75H4.07043C3.40739 14.75 2.7715 14.4866 2.30267 14.0177C1.83383 13.5489 1.57043 12.913 1.57043 12.25V3.91663C1.57043 3.25359 1.83383 2.6177 2.30267 2.14886C2.7715 1.68002 3.40739 1.41663 4.07043 1.41663H7.40375C8.06679 1.41663 8.70267 1.68002 9.17151 2.14886C9.64035 2.6177 9.90374 3.25359 9.90374 3.91663V4.74996" stroke="#E9E6F7" stroke-linecap="round" stroke-linejoin="round"/>
</g>
</svg>
