<svg width="20" height="21" viewBox="0 0 20 21" fill="none" xmlns="http://www.w3.org/2000/svg">
<g id="carbon:settings">
<path id="Vector" d="M16.875 10.975V10.0188L18.075 8.96877C18.2962 8.7738 18.4413 8.50691 18.4848 8.21527C18.5283 7.92363 18.4672 7.62601 18.3125 7.37502L16.8375 4.87502C16.7279 4.68518 16.5703 4.5275 16.3805 4.4178C16.1907 4.3081 15.9754 4.25024 15.7562 4.25001C15.6204 4.24897 15.4853 4.27008 15.3562 4.31251L13.8375 4.82502C13.5753 4.65077 13.3018 4.49417 13.0187 4.35626L12.7 2.78126C12.6428 2.49351 12.4863 2.23504 12.2578 2.05107C12.0293 1.86711 11.7433 1.76939 11.45 1.77501H8.52501C8.2317 1.76939 7.94575 1.86711 7.71723 2.05107C7.48871 2.23504 7.33217 2.49351 7.27502 2.78126L6.95627 4.35626C6.67123 4.49414 6.39562 4.65073 6.13127 4.82502L4.64377 4.28751C4.51334 4.25353 4.37826 4.24087 4.24378 4.25001C4.02457 4.25024 3.80928 4.3081 3.61951 4.4178C3.42973 4.5275 3.27213 4.68518 3.16253 4.87502L1.68754 7.37502C1.54165 7.62564 1.48744 7.91918 1.53419 8.20537C1.58094 8.49156 1.72574 8.7526 1.94378 8.94377L3.12503 10.025V10.9813L1.94378 12.0313C1.71958 12.2238 1.57082 12.4895 1.52391 12.7812C1.477 13.073 1.53497 13.372 1.68754 13.625L3.16253 16.125C3.27213 16.3149 3.42973 16.4725 3.61951 16.5822C3.80928 16.6919 4.02457 16.7498 4.24378 16.75C4.37962 16.7511 4.51472 16.73 4.64377 16.6875L6.16252 16.175C6.42473 16.3493 6.69825 16.5059 6.98127 16.6438L7.30002 18.2188C7.35717 18.5065 7.51371 18.765 7.74223 18.949C7.97075 19.1329 8.2567 19.2307 8.55001 19.225H11.5C11.7933 19.2307 12.0793 19.1329 12.3078 18.949C12.5363 18.765 12.6928 18.5065 12.75 18.2188L13.0687 16.6438C13.3538 16.5059 13.6294 16.3493 13.8937 16.175L15.4062 16.6875C15.5353 16.73 15.6704 16.7511 15.8062 16.75C16.0254 16.7498 16.2407 16.6919 16.4305 16.5822C16.6203 16.4725 16.7779 16.3149 16.8875 16.125L18.3125 13.625C18.4584 13.3744 18.5126 13.0809 18.4658 12.7947C18.4191 12.5085 18.2743 12.2474 18.0562 12.0563L16.875 10.975ZM15.7562 15.5L13.6125 14.775C13.1107 15.2001 12.5371 15.5324 11.9187 15.7563L11.475 18H8.52501L8.08126 15.7813C7.46778 15.551 6.89734 15.2193 6.39377 14.8L4.24378 15.5L2.76878 13L4.46878 11.5C4.35321 10.8531 4.35321 10.1907 4.46878 9.54377L2.76878 8.00002L4.24378 5.50002L6.38752 6.22502C6.88935 5.79995 7.46289 5.46767 8.08126 5.24377L8.52501 3.00001H11.475L11.9187 5.21877C12.5322 5.44903 13.1027 5.78073 13.6062 6.20002L15.7562 5.50002L17.2312 8.00002L15.5312 9.50002C15.6468 10.147 15.6468 10.8093 15.5312 11.4563L17.2312 13L15.7562 15.5Z" fill="#E9E6F7"/>
<path id="Vector_2" d="M9.99999 14.25C9.25831 14.25 8.53329 14.0301 7.91661 13.618C7.29992 13.206 6.81928 12.6203 6.53545 11.9351C6.25162 11.2498 6.17736 10.4958 6.32206 9.76842C6.46675 9.04099 6.8239 8.3728 7.34835 7.84835C7.87279 7.32391 8.54098 6.96675 9.2684 6.82206C9.99583 6.67736 10.7498 6.75162 11.435 7.03545C12.1203 7.31928 12.7059 7.79993 13.118 8.41662C13.53 9.0333 13.75 9.75833 13.75 10.5C13.755 10.9939 13.6614 11.4837 13.4747 11.941C13.2881 12.3982 13.012 12.8136 12.6628 13.1628C12.3136 13.5121 11.8982 13.7881 11.441 13.9748C10.9837 14.1615 10.4938 14.255 9.99999 14.25ZM9.99999 8C9.66958 7.99231 9.34104 8.05171 9.03425 8.17462C8.72746 8.29754 8.44879 8.4814 8.21509 8.7151C7.98139 8.9488 7.79753 9.22747 7.67462 9.53427C7.5517 9.84106 7.4923 10.1696 7.5 10.5C7.4923 10.8304 7.5517 11.159 7.67462 11.4657C7.79753 11.7725 7.98139 12.0512 8.21509 12.2849C8.44879 12.5186 8.72746 12.7025 9.03425 12.8254C9.34104 12.9483 9.66958 13.0077 9.99999 13C10.3304 13.0077 10.6589 12.9483 10.9657 12.8254C11.2725 12.7025 11.5512 12.5186 11.7849 12.2849C12.0186 12.0512 12.2024 11.7725 12.3254 11.4657C12.4483 11.159 12.5077 10.8304 12.5 10.5C12.5077 10.1696 12.4483 9.84106 12.3254 9.53427C12.2024 9.22747 12.0186 8.9488 11.7849 8.7151C11.5512 8.4814 11.2725 8.29754 10.9657 8.17462C10.6589 8.05171 10.3304 7.99231 9.99999 8Z" fill="#E9E6F7"/>
</g>
</svg>
