<svg width="24" height="24" viewBox="0 0 24 24" fill="none" xmlns="http://www.w3.org/2000/svg">
<g id="radix-icons:avatar">
<path id="Vector" fill-rule="evenodd" clip-rule="evenodd" d="M1.4032 12C1.4032 9.18955 2.51964 6.49421 4.50693 4.50693C6.49421 2.51964 9.18955 1.4032 12 1.4032C14.8104 1.4032 17.5058 2.51964 19.4931 4.50693C21.4804 6.49421 22.5968 9.18955 22.5968 12C22.5968 14.8104 21.4804 17.5058 19.4931 19.4931C17.5058 21.4804 14.8104 22.5968 12 22.5968C9.18955 22.5968 6.49421 21.4804 4.50693 19.4931C2.51964 17.5058 1.4032 14.8104 1.4032 12ZM12 2.9232C10.2407 2.92326 8.51926 3.43461 7.04521 4.39504C5.57116 5.35548 4.408 6.7236 3.69723 8.33296C2.98646 9.94233 2.75871 11.7236 3.0417 13.46C3.32469 15.1964 4.10621 16.8132 5.2912 18.1136C6.0106 16.9868 7.00242 16.0595 8.17501 15.4174C9.3476 14.7753 10.6631 14.4392 12 14.44C13.3369 14.439 14.6525 14.7751 15.8251 15.4172C16.9977 16.0593 17.9895 16.9867 18.7088 18.1136C19.8938 16.8132 20.6753 15.1964 20.9583 13.46C21.2413 11.7236 21.0135 9.94233 20.3028 8.33296C19.592 6.7236 18.4288 5.35548 16.9548 4.39504C15.4807 3.43461 13.7593 2.92326 12 2.9232ZM17.5712 19.1664C17.005 18.1906 16.1923 17.3807 15.2145 16.818C14.2367 16.2552 13.1282 15.9593 12 15.96C10.8718 15.9593 9.7633 16.2552 8.7855 16.818C7.8077 17.3807 6.99499 18.1906 6.4288 19.1664C8.02042 20.4075 9.9817 21.08 12 21.0768C14.0992 21.0768 16.032 20.3632 17.5712 19.1664ZM8.24 10.408C8.24 9.41078 8.63614 8.45441 9.34128 7.74928C10.0464 7.04414 11.0028 6.648 12 6.648C12.9972 6.648 13.9536 7.04414 14.6587 7.74928C15.3639 8.45441 15.76 9.41078 15.76 10.408C15.76 11.4052 15.3639 12.3616 14.6587 13.0667C13.9536 13.7719 12.9972 14.168 12 14.168C11.0028 14.168 10.0464 13.7719 9.34128 13.0667C8.63614 12.3616 8.24 11.4052 8.24 10.408ZM12 8.168C11.7058 8.168 11.4146 8.22594 11.1428 8.33851C10.871 8.45108 10.6241 8.61608 10.4161 8.82408C10.2081 9.03208 10.0431 9.27902 9.93051 9.55079C9.81794 9.82256 9.76 10.1138 9.76 10.408C9.76 10.7022 9.81794 10.9934 9.93051 11.2652C10.0431 11.537 10.2081 11.7839 10.4161 11.9919C10.6241 12.1999 10.871 12.3649 11.1428 12.4775C11.4146 12.5901 11.7058 12.648 12 12.648C12.5941 12.648 13.1638 12.412 13.5839 11.9919C14.004 11.5718 14.24 11.0021 14.24 10.408C14.24 9.81391 14.004 9.24416 13.5839 8.82408C13.1638 8.404 12.5941 8.168 12 8.168Z" fill="#E9E6F7"/>
</g>
</svg>
