<svg width="22" height="21" viewBox="0 0 22 21" fill="none" xmlns="http://www.w3.org/2000/svg"><g filter="url(#filter0_d_679_898)"><path d="M8.24996 17.3334C8.24996 18.3418 7.42496 19.1668 6.41663 19.1668C5.40829 19.1668 4.58329 18.3418 4.58329 17.3334C4.58329 16.3251 5.40829 15.5001 6.41663 15.5001C7.42496 15.5001 8.24996 16.3251 8.24996 17.3334ZM15.5833 15.5001C14.575 15.5001 13.75 16.3251 13.75 17.3334C13.75 18.3418 14.575 19.1668 15.5833 19.1668C16.5916 19.1668 17.4166 18.3418 17.4166 17.3334C17.4166 16.3251 16.5916 15.5001 15.5833 15.5001ZM6.59996 12.5668V12.4751L7.42496 10.9168H14.2083C14.85 10.9168 15.4916 10.5501 15.7666 10.0001L19.3416 3.58345L17.7833 2.66678L14.2083 9.08345H7.79163L3.94163 0.833447H0.916626V2.66678H2.74996L6.04996 9.63345L4.76663 11.8334C4.67496 12.1084 4.58329 12.3834 4.58329 12.7501C4.58329 13.7584 5.40829 14.5834 6.41663 14.5834H17.4166V12.7501H6.78329C6.69163 12.7501 6.59996 12.6584 6.59996 12.5668ZM16.5 1.56678L15.2166 0.283447L10.8166 4.68345L8.43329 2.30011L7.14996 3.58345L10.8166 7.25011L16.5 1.56678Z" fill="#0B822A"/></g><defs><filter id="filter0_d_679_898" x="-3.08337" y="0.283447" width="26.425" height="26.8833" filterUnits="userSpaceOnUse" color-interpolation-filters="sRGB"><feFlood flood-opacity="0" result="BackgroundImageFix"/><feColorMatrix in="SourceAlpha" type="matrix" values="0 0 0 0 0 0 0 0 0 0 0 0 0 0 0 0 0 0 127 0" result="hardAlpha"/><feOffset dy="4"/><feGaussianBlur stdDeviation="2"/><feComposite in2="hardAlpha" operator="out"/><feColorMatrix type="matrix" values="0 0 0 0 0 0 0 0 0 0 0 0 0 0 0 0 0 0 0.25 0"/><feBlend mode="normal" in2="BackgroundImageFix" result="effect1_dropShadow_679_898"/><feBlend mode="normal" in="SourceGraphic" in2="effect1_dropShadow_679_898" result="shape"/></filter></defs>
</svg>
